<?xml version="1.0" encoding="UTF-8"?>
<svg version="1.1" xmlns="http://www.w3.org/2000/svg" width="512" height="512">
<path d="M0 0 C1.6924308 -0.00525696 1.6924308 -0.00525696 3.41905212 -0.01062012 C7.12358888 -0.01937253 10.82793223 -0.01360916 14.5324707 -0.00683594 C17.12783342 -0.00818492 19.72319588 -0.01012739 22.31855774 -0.01263428 C27.75113573 -0.01557717 33.18364224 -0.01151005 38.61621094 -0.00195312 C44.85775898 0.0089016 51.09917602 0.00542264 57.34072083 -0.00560594 C63.38699916 -0.01585404 69.43321453 -0.01466857 75.47950172 -0.00884247 C78.03211295 -0.00751743 80.58472756 -0.00911306 83.13733482 -0.01380157 C111.09857216 -0.0538779 134.33891264 1.60101639 155.27075195 22.25878906 C168.27075195 35.44092566 168.27075195 35.44092566 168.27075195 42.25878906 C168.93075195 42.25878906 169.59075195 42.25878906 170.27075195 42.25878906 C170.6574707 40.93621094 170.6574707 40.93621094 171.05200195 39.58691406 C176.29535117 25.26853736 190.12832777 14.01044634 203.27075195 7.25878906 C221.2374816 -0.82007221 239.91030361 -0.04225998 259.1965332 -0.00683594 C261.79672787 -0.00818568 264.39692228 -0.01012877 266.99711609 -0.01263428 C272.4207933 -0.01556838 277.84439858 -0.01153654 283.26806641 -0.00195312 C289.51265821 0.00895431 295.75711961 0.00537949 302.00170833 -0.00560594 C308.05068386 -0.01581535 314.09959622 -0.01468524 320.14858055 -0.00884247 C322.70532436 -0.00751356 325.26207153 -0.00912694 327.81881142 -0.01380157 C331.39313091 -0.01890629 334.96720276 -0.01110235 338.54150391 0 C339.58537262 -0.00404846 340.62924133 -0.00809692 341.70474243 -0.01226807 C351.9989066 0.04667512 361.48374222 0.96218261 369.27075195 8.25878906 C374.54860401 15.38832451 376.42420956 21.0450855 376.3684082 29.86425781 C376.36628578 31.12306511 376.36628578 31.12306511 376.36412048 32.40730286 C376.35852411 35.08700122 376.3459723 37.76661596 376.33325195 40.44628906 C376.32823648 42.26334515 376.32367366 44.08040254 376.31958008 45.89746094 C376.30855586 50.35126919 376.29129373 54.80501495 376.27075195 59.25878906 C377.14900635 59.24211182 378.02726074 59.22543457 378.93212891 59.20825195 C380.67175903 59.18879517 380.67175903 59.18879517 382.4465332 59.16894531 C383.5929126 59.15226807 384.73929199 59.13559082 385.92041016 59.1184082 C394.69849484 59.48621398 400.8470962 63.82974153 407.06762695 69.74707031 C412.32376158 75.73943656 415.38398562 82.8009354 415.40776634 90.77797699 C415.41537816 92.13734698 415.41537816 92.13734698 415.42314374 93.52417898 C415.4236415 94.51598874 415.42413926 95.50779849 415.4246521 96.52966309 C415.42903435 97.58633761 415.43341661 98.64301213 415.43793166 99.7317071 C415.45132187 103.284356 415.45749908 106.8369801 415.46362305 110.38964844 C415.47152392 112.93231315 415.47979286 115.47497675 415.48840332 118.01763916 C415.51236338 125.65717382 415.52755274 133.29670725 415.54046339 140.93626761 C415.54417705 143.09533019 415.54815015 145.25439212 415.55221605 147.41345406 C415.577457 160.83060948 415.59950282 174.24776596 415.6119442 187.66493988 C415.61487374 190.77174381 415.61783542 193.87854771 415.62084961 196.98535156 C415.62159566 197.75750167 415.62234171 198.52965178 415.62311037 199.32520038 C415.63575392 211.82317119 415.66896442 224.32099941 415.71065144 236.81890363 C415.75313255 249.66055006 415.77664644 262.50212363 415.78186476 275.34384012 C415.78527215 282.54977393 415.7969474 289.75548502 415.8299675 296.96134949 C415.86099993 303.74445541 415.86635033 310.52710636 415.85458374 317.3102951 C415.85436322 319.79506119 415.86265037 322.2798454 415.88023758 324.76454926 C416.06044091 351.69745614 416.06044091 351.69745614 406.27075195 363.25878906 C404.0793457 365.17285156 404.0793457 365.17285156 401.70825195 366.88378906 C400.56163086 367.7384375 400.56163086 367.7384375 399.3918457 368.61035156 C389.60785169 373.7778678 379.27963645 373.70304037 368.50830078 373.69116211 C366.84166749 373.70019448 365.1750408 373.71052529 363.50842285 373.7220459 C359.01539799 373.74946888 354.52249968 373.75888029 350.02940202 373.76489997 C345.32217855 373.77432215 340.61504819 373.80052849 335.90788269 373.8249054 C327.00823503 373.86846873 318.10860556 373.89707801 309.20888394 373.92022878 C299.07092019 373.94733512 288.93305057 373.99124317 278.79515421 374.0365175 C257.95373754 374.12921808 237.11229268 374.20096542 216.27075195 374.25878906 C215.95847656 375.08080811 215.64620117 375.90282715 215.32446289 376.74975586 C214.15377541 379.81836951 212.97501674 382.88362764 211.79077148 385.94702148 C211.28135113 387.26967312 210.7751129 388.59355517 210.2722168 389.91870117 C209.54583788 391.83101953 208.80786182 393.73851688 208.06762695 395.64550781 C207.40778809 397.365802 207.40778809 397.365802 206.73461914 399.12084961 C204.68364038 403.51731891 202.19122984 407.12913464 197.89575195 409.50878906 C197.35176758 409.82332031 196.8077832 410.13785156 196.24731445 410.46191406 C190.96033759 412.59342252 185.26093971 412.41870762 179.65356445 412.42675781 C178.83757782 412.43008621 178.02159119 412.43341461 177.18087769 412.43684387 C175.46132975 412.44188681 173.74177212 412.44425302 172.0222168 412.4440918 C169.41088514 412.4462764 166.79997768 412.46445489 164.1887207 412.48339844 C162.51033672 412.48633341 160.83195074 412.48831751 159.15356445 412.48925781 C158.38247345 412.49644333 157.61138245 412.50362885 156.81692505 412.5110321 C148.63858645 412.47706733 141.32169506 411.076313 135.27075195 405.25878906 C131.71193062 398.85582773 129.14438705 392.08707715 126.52075195 385.25878906 C126.10954102 384.19789063 125.69833008 383.13699219 125.2746582 382.04394531 C124.26987942 379.45021404 123.26867036 376.85516577 122.27075195 374.25878906 C121.4117545 374.2573225 120.55275705 374.25585594 119.66772938 374.25434494 C98.72496191 374.21722398 77.78235561 374.15813925 56.83971882 374.07488632 C46.71182823 374.03514962 36.58401473 374.0027299 26.45605469 373.98779297 C17.62410513 373.97474857 8.79232559 373.94771299 -0.03952819 373.904176 C-4.7119509 373.88162374 -9.38416439 373.86587462 -14.05664635 373.86690521 C-18.46362594 373.86765553 -22.87014415 373.84955692 -27.27700424 373.81762123 C-28.88569213 373.80917279 -30.49443209 373.80733753 -32.10313225 373.81298637 C-44.07718377 373.84939918 -56.42727097 373.05350932 -66.01831055 365.02050781 C-74.32465233 356.46763077 -77.18826045 347.1416211 -77.1169281 335.50016785 C-77.12231364 334.43937006 -77.12769918 333.37857227 -77.13324791 332.28562909 C-77.14751701 328.74295323 -77.1404261 325.20065157 -77.13330078 321.65795898 C-77.13900492 319.11307984 -77.14596935 316.56820325 -77.15409851 314.02333069 C-77.17017884 307.83504689 -77.17213113 301.6469005 -77.16688561 295.45860215 C-77.16283785 290.42598201 -77.16429465 285.39339181 -77.16963387 280.36077309 C-77.17038229 279.64343904 -77.17113071 278.92610498 -77.17190181 278.18703354 C-77.17343336 276.72956885 -77.1749717 275.27210416 -77.17651678 273.81463949 C-77.19023403 260.15698943 -77.18480996 246.49939671 -77.17333157 232.84174798 C-77.16340362 220.36276812 -77.1763336 207.88393664 -77.20026576 195.40497967 C-77.2246835 182.57562708 -77.23425784 169.74634352 -77.22761303 156.91696817 C-77.22412627 149.72068074 -77.22631664 142.52450733 -77.24386406 135.32823753 C-77.26016595 128.55905232 -77.25536285 121.79019484 -77.23655891 115.02100182 C-77.23287648 112.54066522 -77.23597134 110.06030761 -77.2464447 107.57999039 C-77.25967952 104.18578987 -77.24808374 100.79252223 -77.23045349 97.39836121 C-77.2400585 96.42421286 -77.2496635 95.45006452 -77.25955957 94.44639653 C-77.14469332 83.6477112 -73.70779738 75.19857802 -66.24487305 67.42675781 C-59.71156641 61.79634604 -52.58973394 59.11165554 -44.04174805 59.19628906 C-42.27250977 59.20982422 -42.27250977 59.20982422 -40.4675293 59.22363281 C-39.56389648 59.23523438 -38.66026367 59.24683594 -37.72924805 59.25878906 C-37.75019531 58.1547876 -37.77114258 57.05078613 -37.79272461 55.91333008 C-37.86562412 51.78162829 -37.91122765 47.64998229 -37.94897461 43.51782227 C-37.9689771 41.7361492 -37.99618827 39.95454083 -38.03100586 38.1730957 C-38.41829067 17.83494786 -38.41829067 17.83494786 -31.41674805 9.50878906 C-30.52987305 8.76628906 -29.64299805 8.02378906 -28.72924805 7.25878906 C-28.22651367 6.81664062 -27.7237793 6.37449219 -27.20581055 5.91894531 C-19.44508802 -0.36614687 -9.55172428 -0.03704469 0 0 Z M-24.04174805 18.82128906 C-26.36200466 22.17277083 -26.85436719 24.69658508 -26.86067581 28.67168903 C-26.86451696 29.57964484 -26.8683581 30.48760064 -26.87231565 31.42307025 C-26.87144916 32.42188557 -26.87058268 33.42070088 -26.86968994 34.44978333 C-26.87266106 35.50983682 -26.87563219 36.56989031 -26.87869334 37.66206664 C-26.88739946 41.23183161 -26.8888902 44.80156313 -26.89038086 48.37133789 C-26.89500765 50.9235898 -26.90003213 53.47584102 -26.90542603 56.02809143 C-26.91856481 62.97437637 -26.92503433 69.92065025 -26.92943668 76.86694551 C-26.93219874 81.20366873 -26.93643602 85.54038972 -26.94094086 89.87711143 C-26.95313367 101.88263338 -26.96343302 113.88815353 -26.96681595 125.89368153 C-26.96703551 126.66214572 -26.96725508 127.43060991 -26.9674813 128.22236089 C-26.96769958 128.99267031 -26.96791786 129.76297973 -26.96814275 130.55663186 C-26.96858622 132.11758856 -26.96903278 133.67854526 -26.96948242 135.23950195 C-26.96970385 136.01379143 -26.96992528 136.7880809 -26.97015342 137.58583369 C-26.97410175 150.13314426 -26.99155677 162.68039676 -27.01484194 175.22768489 C-27.03855179 188.1076925 -27.05101763 200.98767097 -27.05218387 213.86770076 C-27.05310083 221.10022086 -27.05885835 228.3326653 -27.07700348 235.56516457 C-27.09400804 242.36704055 -27.09565985 249.16874834 -27.08686447 255.97064781 C-27.08609189 258.4692104 -27.0904658 260.96778059 -27.10032272 263.46632385 C-27.11297693 266.87333664 -27.10720059 270.27983508 -27.09674072 273.68684387 C-27.10479713 274.67896702 -27.11285353 275.67109017 -27.12115407 276.69327766 C-27.07788918 282.70572251 -26.48345604 287.30835251 -22.1940918 291.90332031 C-18.04600107 295.07538969 -16.02692085 296.38210609 -10.85092163 296.39682007 C-9.30382759 296.40500008 -9.30382759 296.40500008 -7.72547913 296.41334534 C-6.02070656 296.41490883 -6.02070656 296.41490883 -4.28149414 296.41650391 C-3.08770645 296.42158463 -1.89391876 296.42666534 -0.66395569 296.43190002 C2.61995252 296.44543635 5.90384734 296.45480995 9.18777132 296.46331739 C12.63565499 296.47404699 16.08349225 296.49263297 19.53134155 296.51113892 C31.27679649 296.57297986 43.02224931 296.62684585 54.76782227 296.66015625 C61.25114498 296.67862362 67.7343335 296.70772049 74.21755731 296.74816096 C77.64197558 296.76905344 81.06622591 296.78466235 84.49071121 296.78696823 C109.55235452 296.81933972 133.75982882 297.83281584 152.75683594 316.47900391 C154.96139685 318.70766851 157.11787383 320.9802973 159.27075195 323.25878906 C160.60136359 324.59483855 161.93424655 325.92863537 163.27075195 327.25878906 C163.33946775 293.68660713 163.39230594 260.11444274 163.42394794 226.54220606 C163.42769991 222.57574468 163.4315829 218.60928344 163.43554688 214.64282227 C163.43633381 213.85319477 163.43712074 213.06356727 163.43793152 212.25001166 C163.45097376 199.47633177 163.47462108 186.70269251 163.50221034 173.9290367 C163.53029745 160.81519221 163.54693519 147.70136896 163.55301744 134.58749563 C163.55712703 126.50013979 163.57009147 118.41289883 163.59450135 110.32557837 C163.61228287 104.11681594 163.61410924 97.9081405 163.610075 91.69935608 C163.61089892 89.15774136 163.61684751 86.6161222 163.62836838 84.07453346 C163.64335645 80.59686869 163.63968217 77.11969024 163.6315155 73.64201355 C163.64025403 72.64295351 163.64899255 71.64389346 163.65799588 70.61455888 C163.55461444 54.25875331 156.64787368 39.33531067 145.15356445 27.88378906 C135.06422824 18.69675121 121.62526023 12.17448867 107.81251526 12.11161804 C106.72888702 12.10446274 105.64525879 12.09730743 104.52879333 12.0899353 C102.7605294 12.08590195 102.7605294 12.08590195 100.95654297 12.08178711 C99.70723999 12.07521591 98.45793701 12.06864471 97.17077637 12.06187439 C93.03873451 12.04217077 88.90673136 12.03048312 84.7746582 12.02050781 C83.34927794 12.01645801 81.92389787 12.01234102 80.49851799 12.00815773 C73.80403709 11.98912773 67.10956711 11.97488917 60.41506439 11.96654576 C52.69612627 11.9567653 44.97747429 11.93041583 37.25863701 11.89004487 C31.28481638 11.85987545 25.31107779 11.84507633 19.33718246 11.84176475 C15.77218551 11.83941626 12.20749505 11.83048164 8.64258003 11.80530357 C4.66641199 11.77767129 0.69062076 11.78185655 -3.28564453 11.78881836 C-5.05087212 11.76960327 -5.05087212 11.76960327 -6.85176086 11.75 C-14.88352584 11.80133343 -18.58059546 12.7697416 -24.04174805 18.82128906 Z M188.27075195 33.25878906 C180.86431364 42.65298471 175.14196717 54.87897722 175.14770412 67.01263142 C175.14571308 67.94568649 175.14372203 68.87874156 175.14167064 69.84007102 C175.14458349 70.85660811 175.14749633 71.8731452 175.15049744 72.92048645 C175.14964301 74.00689995 175.14878859 75.09331345 175.14790827 76.21264857 C175.14625889 79.85931169 175.15176604 83.50592899 175.15722656 87.15258789 C175.15750858 89.76412963 175.15735042 92.37567144 175.15678406 94.98721313 C175.15625986 100.61293323 175.15939584 106.23864172 175.1650219 111.8643589 C175.17315092 119.99818839 175.17575356 128.13201227 175.17700989 136.26584538 C175.1791982 149.46263382 175.18585231 162.65941609 175.1953125 175.85620117 C175.20449232 188.67521127 175.21157037 201.4942197 175.21582031 214.31323242 C175.21608304 215.10347263 175.21634576 215.89371284 175.21661644 216.70789973 C175.21792149 220.67232543 175.21918519 224.63675114 175.22042835 228.60117686 C175.23079409 261.48705209 175.24840641 294.37291975 175.27075195 327.25878906 C177.73084675 324.80786802 180.17840255 322.35681181 182.55981445 319.82910156 C196.93352341 304.78237613 214.83229376 297.64882216 235.48736572 296.98806763 C242.30364365 296.85865646 249.11936022 296.8649162 255.93660212 296.88440442 C259.37841997 296.88998553 262.82014456 296.87536025 266.26193237 296.86204529 C276.45664935 296.82615531 286.65135577 296.81962785 296.84613037 296.82214355 C304.80679369 296.8238567 312.76722784 296.81672912 320.72782695 296.78216499 C324.14398488 296.768163 327.5597551 296.76222007 330.97592545 296.77520943 C334.7738528 296.78696676 338.57100795 296.77462887 342.36889648 296.75708008 C344.0520974 296.77169533 344.0520974 296.77169533 345.76930237 296.78660583 C351.92732978 296.7297269 355.59894054 296.40195204 360.27075195 292.25878906 C363.92703069 288.20723695 365.3935531 285.28158088 365.40217972 279.84588909 C365.40602086 278.93793329 365.40986201 278.02997749 365.41381955 277.09450787 C365.41295307 276.09569256 365.41208659 275.09687724 365.41119385 274.0677948 C365.41416497 273.00774131 365.41713609 271.94768781 365.42019725 270.85551149 C365.42890337 267.28574651 365.43039411 263.716015 365.43188477 260.14624023 C365.43651156 257.59398832 365.44153603 255.0417371 365.44692993 252.48948669 C365.46006872 245.54320175 365.46653823 238.59692787 365.47094059 231.65063262 C365.47370265 227.3139094 365.47793993 222.97718841 365.48244476 218.64046669 C365.49463758 206.63494475 365.50493693 194.6294246 365.50831985 182.6238966 C365.50853942 181.85543241 365.50875899 181.08696822 365.50898521 180.29521723 C365.50920348 179.52490781 365.50942176 178.75459839 365.50964665 177.96094626 C365.51009012 176.39998956 365.51053668 174.83903287 365.51098633 173.27807617 C365.51120776 172.5037867 365.51142919 171.72949722 365.51165733 170.93174443 C365.51560566 158.38443387 365.53306067 145.83718137 365.55634585 133.28989323 C365.58005569 120.40988562 365.59252153 107.52990716 365.59368777 94.64987737 C365.59460473 87.41735727 365.60036225 80.18491283 365.61850739 72.95241356 C365.63551194 66.15053757 365.63716375 59.34882978 365.62836838 52.54693031 C365.62759579 50.04836773 365.63196971 47.54979754 365.64182663 45.05125427 C365.65448083 41.64424149 365.64870449 38.23774304 365.63824463 34.83073425 C365.64630103 33.8386111 365.65435744 32.84648795 365.66265798 31.82430047 C365.61939309 25.81185561 365.02495995 21.20922561 360.7355957 16.61425781 C356.5041965 13.37848195 354.48750377 12.13514424 349.20692444 12.11834717 C348.134646 12.11263702 347.06236755 12.10692688 345.95759583 12.1010437 C344.18493599 12.09936691 344.18493599 12.09936691 342.37646484 12.09765625 C341.13563141 12.09269135 339.89479797 12.08772644 338.61636353 12.08261108 C335.20467941 12.07048479 331.79305677 12.06303845 328.38135839 12.05860043 C326.24685035 12.05566879 324.11234767 12.05156358 321.97784233 12.04709625 C315.2913465 12.03341147 308.60486296 12.02375238 301.91835409 12.01989436 C294.21646757 12.01542571 286.51475958 11.99793779 278.81292731 11.96889377 C272.85182655 11.94720077 266.89077571 11.93718586 260.92963594 11.93585324 C257.3739962 11.93480967 253.81852405 11.92899953 250.2629261 11.91103363 C246.28509037 11.89132777 242.30747297 11.89587212 238.32958984 11.90234375 C236.58425713 11.88852158 236.58425713 11.88852158 234.80366516 11.87442017 C216.27987761 11.96840382 200.59731146 19.72158531 188.27075195 33.25878906 Z M-59.61987305 77.16113281 C-65.20657534 84.22587042 -66.02537187 90.78665818 -66.00340271 99.55584717 C-66.00863939 100.59114036 -66.01387607 101.62643355 -66.01927143 102.69309926 C-66.03427009 106.16132404 -66.03497657 109.62940127 -66.03564453 113.09765625 C-66.0432661 115.58474985 -66.05169359 118.07184109 -66.06086731 120.55892944 C-66.08281953 127.31523924 -66.09163417 134.07148973 -66.09669375 140.8278265 C-66.09995463 145.04952142 -66.10647945 149.27120726 -66.11369514 153.49289703 C-66.1332563 165.19056784 -66.14966345 176.88823022 -66.15257168 188.58591843 C-66.15275925 189.33396534 -66.15294682 190.08201225 -66.15314007 190.85272725 C-66.15350631 192.36907721 -66.15387001 193.88542716 -66.15423118 195.40177712 C-66.15441399 196.15445434 -66.15459681 196.90713156 -66.15478516 197.68261719 C-66.15496571 198.43621723 -66.15514625 199.18981726 -66.15533227 199.96625367 C-66.15887316 212.17446426 -66.18589229 224.38249838 -66.22328304 236.59064779 C-66.26139879 249.13629314 -66.28072939 261.68185099 -66.28103119 274.22755551 C-66.28161501 281.26683053 -66.29005829 288.30589498 -66.31902885 295.34511566 C-66.34615873 301.96734033 -66.34741983 308.58922134 -66.33137321 315.21150589 C-66.32955794 317.63905623 -66.33625636 320.06663047 -66.35219193 322.49412918 C-66.37265625 325.81451 -66.36209686 329.13343338 -66.34397888 332.45379639 C-66.35717885 333.40887612 -66.37037882 334.36395586 -66.38397878 335.3479774 C-66.28040426 343.68857043 -63.54339323 350.7777102 -57.54174805 356.69628906 C-47.74190365 364.05203889 -35.18803998 362.66684096 -23.59204102 362.59936523 C-21.55118319 362.59851811 -19.51032446 362.59899578 -17.46946716 362.60069275 C-11.95155938 362.60155077 -6.43384867 362.5839562 -0.91598654 362.56297088 C4.85888568 362.54417191 10.63376279 362.5424511 16.40866089 362.53889465 C27.33419717 362.52958365 38.25964301 362.50498262 49.18513954 362.47484618 C61.62768545 362.44127278 74.07023576 362.42480877 86.51281571 362.40975988 C112.09884453 362.37843226 137.68479317 362.32569012 163.27075195 362.25878906 C163.12266271 360.81962434 162.97121725 359.38080472 162.81835938 357.94213867 C162.734384 357.14086044 162.65040863 356.33958221 162.56388855 355.51402283 C160.77154009 341.72466723 151.2738146 328.915058 140.85668945 320.25097656 C128.74901221 311.37201325 116.86868066 307.95873571 102.04663086 307.97167969 C100.24017845 307.96143013 100.24017845 307.96143013 98.39723206 307.95097351 C95.11405827 307.93389808 91.83098886 307.92530955 88.54777956 307.91993523 C85.09710644 307.9116956 81.64651366 307.89076379 78.19589233 307.87072754 C69.42921664 307.82191027 60.66250695 307.78950271 51.89575195 307.75878906 C42.43557898 307.72562703 32.97546942 307.68953906 23.51539361 307.63465834 C20.08792524 307.61524104 16.66054171 307.59993602 13.23302078 307.59431458 C9.40647577 307.58684032 5.58014945 307.56754639 1.75366211 307.54589844 C0.63334091 307.54688034 -0.48698029 307.54786224 -1.64125061 307.5488739 C-11.70421944 307.46988323 -21.73375851 306.94319188 -29.38549805 299.68847656 C-35.43033322 293.08064204 -37.17948926 286.93468437 -37.12797546 278.17884827 C-37.13462229 277.28673643 -37.14126912 276.39462459 -37.14811736 275.47547907 C-37.16670974 272.49826522 -37.16414459 269.52145459 -37.16162109 266.54418945 C-37.17064053 264.40524734 -37.1809682 262.26631039 -37.19250488 260.12738037 C-37.22007946 254.3283794 -37.22936008 248.52947649 -37.23535895 242.73041844 C-37.24474136 236.66719887 -37.27094469 230.60405259 -37.29536438 224.5408783 C-37.33903663 213.06281095 -37.3675792 201.58475781 -37.39068776 190.10663265 C-37.41773548 177.03775296 -37.4616473 163.96894697 -37.50697649 150.9001199 C-37.59983321 124.01971624 -37.6715093 97.13928947 -37.72924805 70.25878906 C-39.33432971 70.23678554 -40.93949834 70.22106243 -42.54467773 70.20800781 C-43.43854187 70.19858154 -44.33240601 70.18915527 -45.25335693 70.17944336 C-50.91179289 70.36078113 -55.68910975 73.20600528 -59.61987305 77.16113281 Z M376.27075195 70.25878906 C376.27020719 71.36793104 376.26966242 72.47707302 376.26910114 73.61982536 C376.25469934 100.62014407 376.21165613 127.62030168 376.13866138 154.62052727 C376.10402309 167.6777012 376.07865736 180.73476969 376.07519531 193.79199219 C376.07215383 205.17399921 376.0516383 216.55581837 376.01022738 227.93775284 C375.98891275 233.96323596 375.97628908 239.9884521 375.98459816 246.01397324 C375.99214773 251.68906167 375.97627778 257.36360957 375.9426918 263.03859901 C375.9344696 265.11780645 375.93469547 267.19706774 375.94415474 269.27626991 C376.03044654 290.33383834 376.03044654 290.33383834 368.2434082 299.69628906 C358.74459451 307.46627982 349.0232272 307.40619633 337.20776367 307.40063477 C335.40875862 307.40584641 335.40875862 307.40584641 333.57341003 307.41116333 C330.97511124 307.41850014 328.37680626 307.42385654 325.7784996 307.42745399 C321.65772128 307.43340388 317.53702754 307.44998277 313.41629028 307.46879578 C312.00055509 307.47513229 310.58481984 307.48145792 309.16908455 307.48777294 C308.46030356 307.49093875 307.75152256 307.49410456 307.02126336 307.49736631 C297.43842555 307.53928953 287.85562852 307.5723894 278.27270508 307.5847168 C271.79447406 307.59313554 265.31645459 307.61576423 258.83832943 307.65407246 C255.41905991 307.6737024 252.00010562 307.6862817 248.58077621 307.68123817 C244.75690048 307.67887058 240.93386861 307.70116402 237.11010742 307.72875977 C235.99900101 307.72215836 234.88789459 307.71555695 233.74311829 307.70875549 C218.00694601 307.89392652 203.99864899 313.99788901 192.62231445 324.77832031 C182.93401465 334.99770632 175.27075195 347.84767985 175.27075195 362.25878906 C202.08747343 362.32890827 228.90418115 362.38179156 255.72097588 362.41422558 C268.17282045 362.42968635 280.62460803 362.45076087 293.07641602 362.48510742 C303.9309595 362.51503384 314.78546169 362.5343698 325.64004529 362.54105455 C331.38604731 362.54496128 337.13193123 362.5541264 342.87789536 362.57597923 C348.29016619 362.59639552 353.70227065 362.60261243 359.11457634 362.59811211 C361.09705574 362.598935 363.07954091 362.60486987 365.06198692 362.61640549 C381.93110171 363.24922832 381.93110171 363.24922832 396.64575195 356.13378906 C397.25161133 355.61558594 397.8574707 355.09738281 398.48168945 354.56347656 C403.75227724 347.77385473 404.85627725 340.98550009 404.7719574 332.58750916 C404.77749179 331.54824156 404.78302619 330.50897396 404.7887283 329.43821341 C404.80228327 325.97443088 404.78739303 322.51137534 404.77246094 319.04760742 C404.77624594 316.55682571 404.78174748 314.06604611 404.78883362 311.57527161 C404.80133401 305.52376051 404.79523641 299.47253177 404.78015804 293.4210481 C404.76325574 286.36781444 404.76651347 279.31463233 404.77025212 272.26138467 C404.77612413 259.67380735 404.76198449 247.08633022 404.73730469 234.4987793 C404.71338073 222.29529059 404.70630325 210.09193569 404.71679688 197.88842773 C404.72821541 184.58554251 404.73012499 171.2827191 404.71569878 157.97983462 C404.714173 156.56041976 404.71265265 155.14100491 404.71113777 153.72159004 C404.71000105 152.67413491 404.71000105 152.67413491 404.70884136 151.60551907 C404.70410616 146.69343886 404.70594451 141.78138634 404.71020317 136.86930656 C404.71565444 130.25446921 404.70485223 123.63978986 404.68324852 117.02497673 C404.67768691 114.59821191 404.67720959 112.17142929 404.68220139 109.74466324 C404.68816316 106.43059899 404.67563121 103.1170988 404.65843201 99.80308533 C404.66444205 98.84422627 404.6704521 97.88536721 404.67664427 96.89745182 C404.60510091 89.30938993 403.23379434 82.47045964 397.90356445 76.64550781 C392.78092509 72.29494089 387.78959398 70.12674451 381.08398438 70.20361328 C380.18282394 70.21157928 379.28166351 70.21954529 378.35319519 70.22775269 C377.66598892 70.23799469 376.97878265 70.24823669 376.27075195 70.25878906 Z M135.27075195 373.25878906 C136.17939666 378.71065732 137.50453137 382.86348274 139.58325195 387.88378906 C140.02701172 389.00914062 140.02701172 389.00914062 140.47973633 390.15722656 C140.7781543 390.88425781 141.07657227 391.61128906 141.3840332 392.36035156 C141.64998291 393.01342285 141.91593262 393.66649414 142.18994141 394.33935547 C143.69086389 397.00487445 144.74660462 398.44539108 147.27075195 400.25878906 C150.54627203 400.87949191 153.78416371 400.86689877 157.1105957 400.86035156 C158.06970352 400.86892181 159.02881134 400.87749207 160.01698303 400.88632202 C162.04351649 400.89779761 164.07013233 400.8988171 166.09667969 400.89013672 C169.19454734 400.88381702 172.28859134 400.93072889 175.38598633 400.98144531 C177.35668464 400.9859917 179.32739321 400.9873981 181.2980957 400.98535156 C182.68423317 401.0129808 182.68423317 401.0129808 184.09837341 401.04116821 C184.96599808 401.02871063 185.83362274 401.01625305 186.72753906 401.00341797 C187.48602646 401.00467682 188.24451385 401.00593567 189.02598572 401.00723267 C192.25315698 400.15002697 192.25315698 400.15002697 196.27075195 394.25878906 C198.91075195 387.32878906 201.55075195 380.39878906 204.27075195 373.25878906 C181.50075195 373.25878906 158.73075195 373.25878906 135.27075195 373.25878906 Z " fill="#1A1A1A" transform="translate(86.729248046875,49.7412109375)"/>
<path d="M0 0 C1.15874634 -0.00700928 2.31749268 -0.01401855 3.51135254 -0.02124023 C7.32552351 -0.03878449 11.13894703 -0.02720921 14.953125 -0.01367188 C17.61296504 -0.0163678 20.27278274 -0.02024545 22.93261719 -0.02526855 C28.50073276 -0.03252901 34.06863554 -0.02299966 39.63671875 -0.00390625 C46.05799285 0.01785969 52.4787588 0.01080716 58.9000206 -0.01121187 C64.43066608 -0.02941188 69.96115932 -0.03190187 75.4918251 -0.0214572 C78.7874139 -0.01524734 82.08271393 -0.01590642 85.3782959 -0.02760315 C89.05462749 -0.03778848 92.72999035 -0.02223776 96.40625 0 C97.48700806 -0.00809692 98.56776611 -0.01619385 99.68127441 -0.02453613 C105.96883935 0.04574123 111.01984311 0.74152072 116.203125 4.51757812 C121.09371256 10.43429846 120.78804266 16.32352607 120.734375 23.76757812 C120.7382019 24.9396582 120.74202881 26.11173828 120.74597168 27.31933594 C120.7486862 29.79037335 120.74135743 32.26143973 120.72460938 34.73242188 C120.70319519 38.50521172 120.72442883 42.2760972 120.75 46.04882812 C120.74735664 48.45508231 120.74223151 50.86133531 120.734375 53.26757812 C120.74247192 54.39067383 120.75056885 55.51376953 120.75891113 56.67089844 C120.68196896 63.12715836 120.38647258 67.45648937 116.203125 72.51757812 C110.03702464 77.01339961 103.77584257 77.08525818 96.39038086 77.01928711 C94.64985191 77.02739159 94.64985191 77.02739159 92.87416077 77.03565979 C89.0551672 77.04812294 85.23693097 77.0316719 81.41796875 77.01367188 C78.75573203 77.01382691 76.09352212 77.015263 73.43128967 77.01808167 C67.85897044 77.02077744 62.28686739 77.00736178 56.71459961 76.98413086 C50.28541834 76.95751187 43.85659802 76.95578044 37.4273805 76.96751922 C31.22407312 76.97832201 25.02089545 76.97209124 18.81759834 76.95796394 C16.18581076 76.95345241 13.55401258 76.95311003 10.92222404 76.95702934 C7.24342047 76.95994375 3.56520395 76.94342271 -0.11352539 76.92163086 C-1.19787872 76.92613251 -2.28223206 76.93063416 -3.39944458 76.93527222 C-9.30243532 76.87725546 -13.61030647 76.42329207 -18.796875 73.51757812 C-22.66384554 69.34532043 -23.91710636 66.85225177 -23.97387695 61.24511719 C-23.98671219 60.14347229 -23.99954742 59.04182739 -24.01277161 57.90679932 C-24.02015854 56.71101257 -24.02754547 55.51522583 -24.03515625 54.28320312 C-24.043228 53.05728455 -24.05129974 51.83136597 -24.05961609 50.56829834 C-24.07346737 47.96904927 -24.08418483 45.36978192 -24.09204102 42.77050781 C-24.10525557 38.79789741 -24.15312254 34.8259003 -24.19726562 30.85351562 C-24.20739309 28.33008425 -24.21590902 25.8066458 -24.22265625 23.28320312 C-24.24016434 22.09551331 -24.25767242 20.90782349 -24.27571106 19.68414307 C-24.26323321 14.93173522 -24.16231138 11.36685391 -22.27026367 6.96972656 C-15.71873775 0.47446189 -8.90546039 -0.06671876 0 0 Z M-11.796875 12.51757812 C-13.00015497 14.92413807 -12.92373123 16.43201598 -12.92626953 19.11914062 C-12.92942169 20.07353027 -12.93257385 21.02791992 -12.93582153 22.01123047 C-12.9337973 23.0445752 -12.93177307 24.07791992 -12.9296875 25.14257812 C-12.93064423 26.20041504 -12.93160095 27.25825195 -12.93258667 28.34814453 C-12.93326801 30.58756571 -12.93141693 32.82698885 -12.92724609 35.06640625 C-12.92189722 38.50330013 -12.92719267 41.94006333 -12.93359375 45.37695312 C-12.93293296 47.54882841 -12.93165178 49.72070362 -12.9296875 51.89257812 C-12.93171173 52.92592285 -12.93373596 53.95926758 -12.93582153 55.02392578 C-12.93266937 55.97831543 -12.92951721 56.93270508 -12.92626953 57.91601562 C-12.92547394 58.75825684 -12.92467834 59.60049805 -12.92385864 60.46826172 C-12.92686661 62.58346275 -12.92686661 62.58346275 -11.796875 64.51757812 C-8.92453201 65.47502579 -7.11802309 65.64736445 -4.13514709 65.65802002 C-2.69881172 65.66658524 -2.69881172 65.66658524 -1.23345947 65.67532349 C0.3399118 65.67700027 0.3399118 65.67700027 1.94506836 65.67871094 C3.60394829 65.68615829 3.60394829 65.68615829 5.29634094 65.6937561 C8.96188982 65.70838492 12.62739545 65.71518026 16.29296875 65.72070312 C18.83500673 65.72645311 21.37704469 65.73221086 23.91908264 65.73797607 C28.56953192 65.74714351 33.21996818 65.75344359 37.87042421 65.75647283 C44.71491228 65.76095587 51.55920088 65.77851746 58.40362829 65.80747342 C64.33297919 65.83168744 70.26228033 65.83941672 76.19168282 65.84114838 C78.71432139 65.84418101 81.23695899 65.85222994 83.75956535 65.86533356 C87.28379432 65.88233615 90.80753408 65.88052797 94.33178711 65.87402344 C95.90212204 65.88784561 95.90212204 65.88784561 97.50418091 65.90194702 C98.46455765 65.89637787 99.42493439 65.89080872 100.41441345 65.8850708 C101.24750503 65.88653736 102.0805966 65.88800392 102.93893337 65.88951492 C105.74891299 65.427922 107.13373794 64.44333779 109.203125 62.51757812 C109.80629934 60.3134782 109.80629934 60.3134782 109.72070312 57.81835938 C109.73331177 56.86727295 109.74592041 55.91618652 109.75891113 54.9362793 C109.75081421 53.91123291 109.74271729 52.88618652 109.734375 51.83007812 C109.7382019 50.77602783 109.74202881 49.72197754 109.74597168 48.63598633 C109.74869451 46.40672857 109.74130748 44.17743907 109.72460938 41.94824219 C109.70320609 38.53052736 109.72439963 35.11491485 109.75 31.69726562 C109.74735679 29.53319847 109.74223196 27.36913263 109.734375 25.20507812 C109.74247192 24.18003174 109.75056885 23.15498535 109.75891113 22.09887695 C109.74630249 21.14779053 109.73369385 20.1967041 109.72070312 19.21679688 C109.71752075 18.37979248 109.71433838 17.54278809 109.71105957 16.68041992 C109.38401462 14.38585031 109.38401462 14.38585031 107.47067356 12.9053688 C104.85380688 11.30378759 103.45708272 11.14472919 100.41441345 11.15008545 C99.45403671 11.1445163 98.49365997 11.13894714 97.50418091 11.13320923 C96.45729095 11.14242401 95.410401 11.15163879 94.33178711 11.16113281 C93.22411484 11.15908844 92.11644257 11.15704407 90.97520447 11.15493774 C87.31012521 11.15192714 83.64549462 11.17041523 79.98046875 11.18945312 C77.43746553 11.19251024 74.89446064 11.19438672 72.35145569 11.19512939 C67.02093655 11.19973418 61.69057125 11.21377713 56.36010742 11.23632812 C49.51789959 11.26521571 42.67579548 11.27555328 35.83353329 11.28001022 C30.58259555 11.28356262 25.33167642 11.29397649 20.08075142 11.30588531 C17.55729936 11.31159326 15.03384498 11.31635023 12.51038933 11.32015228 C8.98857388 11.32700642 5.46685355 11.34063465 1.94506836 11.35644531 C0.89615417 11.35756317 -0.15276001 11.35868103 -1.23345947 11.35983276 C-2.66979485 11.36839798 -2.66979485 11.36839798 -4.13514709 11.37713623 C-4.96786164 11.38011089 -5.80057619 11.38308556 -6.65852451 11.38615036 C-8.9841877 11.43699691 -8.9841877 11.43699691 -11.796875 12.51757812 Z " fill="#1A1A1A" transform="translate(308.796875,242.482421875)"/>
<path d="M0 0 C1.23525925 -0.01606293 2.47051849 -0.03212585 3.74320984 -0.04867554 C5.09418038 -0.06016551 6.44515867 -0.07077362 7.79614258 -0.08056641 C8.47845758 -0.08589008 9.16077259 -0.09121376 9.86376381 -0.09669876 C13.47801208 -0.12340712 17.09222616 -0.14278603 20.70654297 -0.15722656 C23.68732553 -0.17054233 26.66741967 -0.19835243 29.64794922 -0.23925781 C33.25656682 -0.28877509 36.86456224 -0.31337079 40.47350502 -0.32045364 C41.84296782 -0.32713549 43.21241841 -0.34227731 44.58168602 -0.36634445 C52.6573962 -0.50014713 58.77693426 -0.33034667 65.00317383 5.19287109 C71.11413154 11.30382881 71.23658638 18.26906339 71.30671692 26.47129822 C71.30580551 27.6568782 71.3048941 28.84245819 71.30395508 30.06396484 C71.3082402 31.30026138 71.31252533 32.53655792 71.31694031 33.81031799 C71.32266969 36.41837961 71.32319416 39.0264572 71.31884766 41.63452148 C71.31568744 45.61323424 71.33916669 49.59120326 71.36450195 53.56982422 C71.36677512 56.10953683 71.36747836 58.64925142 71.36645508 61.18896484 C71.37566483 62.3725206 71.38487457 63.55607635 71.3943634 64.77549744 C71.34561717 73.52479652 70.36786408 80.64098407 64.00317383 87.19287109 C59.07520565 90.64244882 55.12120977 91.31312162 49.18408203 91.36987305 C48.01218826 91.38270828 46.84029449 91.39554352 45.63288879 91.4087677 C43.7375666 91.4198481 43.7375666 91.4198481 41.80395508 91.43115234 C40.49919724 91.43922409 39.19443939 91.44729584 37.85014343 91.45561218 C35.08710869 91.4706148 32.32409939 91.48046337 29.56103516 91.48803711 C26.04180062 91.49907237 22.52320344 91.53344795 19.00419331 91.57320881 C15.62497436 91.60583131 12.24581921 91.61016713 8.86645508 91.61865234 C6.98631462 91.64491447 6.98631462 91.64491447 5.06819153 91.67170715 C-3.06273403 91.65167812 -9.73315259 91.21332958 -15.8494873 85.44589233 C-21.16919191 78.79880091 -20.85895494 71.53765854 -20.75854492 63.37646484 C-20.76005064 61.95117369 -20.76348874 60.52588342 -20.76875305 59.1006012 C-20.77306343 56.12743489 -20.7564079 53.15536121 -20.72412109 50.18237305 C-20.68430322 46.39040822 -20.69366888 42.60048571 -20.71835613 38.80845547 C-20.73260379 35.8698938 -20.72240274 32.93180143 -20.70484352 29.99327278 C-20.69903561 28.59597967 -20.70023355 27.19863768 -20.70886803 25.80135918 C-20.74174363 17.82888628 -20.6567176 11.25418128 -14.99682617 5.19287109 C-9.95754289 1.26223013 -6.30523807 0.07450221 0 0 Z M-6.99682617 13.19287109 C-9.25842096 16.58526327 -9.25726073 17.79696948 -9.28735352 21.77832031 C-9.30011322 22.92315887 -9.31287292 24.06799744 -9.32601929 25.24752808 C-9.32824493 26.48503815 -9.33047058 27.72254822 -9.33276367 28.99755859 C-9.33942047 30.26882599 -9.34607727 31.54009338 -9.35293579 32.84988403 C-9.36307072 35.54166646 -9.36861674 38.23304512 -9.36743164 40.92480469 C-9.36722856 44.36716655 -9.39451736 47.80870176 -9.42897606 51.25086784 C-9.45661871 54.54140029 -9.45539506 57.83192579 -9.45776367 61.12255859 C-9.4721347 62.3560202 -9.48650574 63.58948181 -9.50131226 64.86032104 C-9.495159 66.01146393 -9.48900574 67.16260681 -9.48266602 68.34863281 C-9.48551605 69.35884491 -9.48836609 70.36905701 -9.49130249 71.40988159 C-8.85946388 74.96596742 -7.50541107 76.63765282 -4.99682617 79.19287109 C-1.97234443 80.20103168 0.13137215 80.34298725 3.29736328 80.38574219 C4.3789119 80.40180511 5.46046051 80.41786804 6.57478333 80.43441772 C11.51599466 80.4789107 16.45707273 80.51992337 21.3984375 80.54296875 C24.00464807 80.55953674 26.61081306 80.5868374 29.21679688 80.625 C32.97525598 80.67974986 36.73265097 80.7016403 40.49145508 80.71630859 C41.65413406 80.73897797 42.81681305 80.76164734 44.01472473 80.78500366 C50.66159087 80.83959041 50.66159087 80.83959041 56.73754883 78.48632812 C60.33002857 73.26407039 59.84069028 68.16920356 59.76489258 61.97412109 C59.76826126 60.68348755 59.77162994 59.392854 59.77510071 58.06311035 C59.779425 55.33588497 59.762653 52.609845 59.73046875 49.8828125 C59.69068405 46.39529177 59.69999033 42.90999269 59.72470379 39.42240143 C59.742335 36.08526327 59.72089375 32.74875789 59.70239258 29.41162109 C59.70937668 28.16255981 59.71636078 26.91349854 59.72355652 25.62658691 C59.644423 20.77272871 59.55097028 17.22745277 57.26049805 12.90161133 C52.04652333 10.16644351 46.98390754 10.54057756 41.18676758 10.63427734 C39.93815445 10.63660873 38.68954132 10.63894012 37.40309143 10.64134216 C34.76541748 10.65108007 32.12991598 10.67012122 29.49267578 10.70581055 C26.11770888 10.7511292 22.74351302 10.76583981 19.36826992 10.76954746 C16.14101503 10.77504775 12.91393573 10.79842444 9.68676758 10.82177734 C8.47629257 10.82714005 7.26581757 10.83250275 6.0186615 10.83802795 C4.33154808 10.86200905 4.33154808 10.86200905 2.61035156 10.88647461 C1.62171616 10.89711441 0.63308075 10.90775421 -0.38551331 10.91871643 C-3.11388757 11.20516105 -4.71484588 11.69043381 -6.99682617 13.19287109 Z " fill="#1A1A1A" transform="translate(129.996826171875,86.80712890625)"/>
<path d="M0 0 C1.21977036 -0.00852997 2.43954071 -0.01705994 3.6962738 -0.02584839 C5.04495252 -0.0251494 6.39363114 -0.02422635 7.74230957 -0.02310181 C9.16496636 -0.02908717 10.5876199 -0.03589273 12.01026917 -0.04345703 C15.87176535 -0.06112035 19.7331729 -0.06581246 23.59470558 -0.0670886 C26.81800952 -0.06898822 30.04129284 -0.0763462 33.26458883 -0.08343279 C40.86768738 -0.09971447 48.47073856 -0.10460183 56.07385254 -0.10317993 C63.91970138 -0.10197751 71.76527558 -0.12309973 79.6110549 -0.15466726 C86.34661197 -0.18080309 93.08207915 -0.19154841 99.81768656 -0.19026911 C103.84091251 -0.18975882 107.86389422 -0.19547924 111.8870697 -0.21662521 C115.66942411 -0.23596331 119.45130008 -0.23616296 123.23367119 -0.22159195 C124.62202591 -0.21949742 126.01041023 -0.22424309 127.39871407 -0.23631287 C129.2931744 -0.25171713 131.18779724 -0.24008006 133.08227539 -0.22705078 C134.67287151 -0.22868508 134.67287151 -0.22868508 136.29560089 -0.2303524 C139.74571101 0.39516779 140.95420467 1.49214036 143.0411377 4.26742554 C143.0411377 7.39242554 143.0411377 7.39242554 142.0411377 10.26742554 C138.81235877 12.48690357 135.96632279 12.520624 132.12023926 12.52812195 C130.90888306 12.53520676 129.69752686 12.54229156 128.44946289 12.54959106 C127.11022912 12.54729734 125.7709957 12.54478766 124.4317627 12.54208374 C123.01895885 12.54643173 121.60615736 12.55161517 120.19335938 12.55757141 C116.35871264 12.57096205 112.52416446 12.57154011 108.6894989 12.56900811 C105.48856436 12.56793864 102.28764978 12.57282106 99.08671951 12.57761353 C91.53635414 12.58870853 83.98603852 12.5891459 76.43566895 12.58309937 C68.644396 12.57705593 60.85330347 12.5893799 53.06206131 12.61066943 C46.37321444 12.62827514 39.68442507 12.63428851 32.99555588 12.63103169 C29.00032393 12.62921734 25.00522075 12.6318702 21.01000977 12.64574623 C17.25397869 12.6583036 13.49822941 12.65640055 9.74220276 12.64333534 C8.36352952 12.64096558 6.98483657 12.64371858 5.60618591 12.65195847 C3.72482845 12.66239251 1.84339099 12.65254125 -0.03796387 12.64164734 C-1.09098694 12.64181508 -2.14401001 12.64198282 -3.22894287 12.64215565 C-6.37048095 12.21092354 -7.76476347 11.54353936 -9.9588623 9.26742554 C-10.2088623 5.57992554 -10.2088623 5.57992554 -9.9588623 2.26742554 C-6.56264974 0.21562704 -3.93668652 0.01244302 0 0 Z " fill="#1B1B1B" transform="translate(88.9588623046875,220.73257446289063)"/>
<path d="M0 0 C1.24370865 -0.00708481 2.4874173 -0.01416962 3.76881409 -0.02146912 C5.15467871 -0.01917508 6.54054298 -0.01666536 7.92640686 -0.01396179 C9.37994652 -0.01830702 10.83348389 -0.02348953 12.28701782 -0.02944946 C16.24154584 -0.04287141 20.19597848 -0.04341459 24.15052485 -0.04088616 C27.4483809 -0.03981857 30.74621747 -0.04469438 34.04406935 -0.04949158 C41.82257158 -0.0605979 49.60102553 -0.06101792 57.37953186 -0.05497742 C65.41162868 -0.04893601 73.44355041 -0.06125025 81.47561735 -0.08254749 C88.3648309 -0.10014466 95.25398862 -0.10616782 102.14322382 -0.10290974 C106.26085419 -0.10109366 110.37835968 -0.10376519 114.49596977 -0.11762428 C118.36769785 -0.13016743 122.23915237 -0.12829215 126.11087608 -0.11521339 C127.53350668 -0.11284032 128.95615632 -0.11560836 130.37876511 -0.12383652 C132.31750797 -0.13424304 134.25632826 -0.12443483 136.19506836 -0.11352539 C137.28110824 -0.11369313 138.36714811 -0.11386087 139.48609829 -0.1140337 C142.161026 0.26069641 142.161026 0.26069641 144.0456171 1.59267902 C145.161026 3.26069641 145.161026 3.26069641 144.973526 6.32319641 C144.161026 9.26069641 144.161026 9.26069641 142.161026 11.26069641 C139.60914612 11.51237869 139.60914612 11.51237869 136.31532288 11.5146637 C135.07016907 11.52030334 133.82501526 11.52594299 132.54212952 11.53175354 C131.15467777 11.52786458 129.76722659 11.52376822 128.379776 11.51948547 C126.92461471 11.52219429 125.46945479 11.52575461 124.01429749 11.53010559 C120.05569617 11.53924489 116.09719878 11.53567903 112.13859558 11.52934742 C108.00218926 11.52429537 103.86579203 11.52897665 99.72938538 11.53211975 C92.78210344 11.53576172 85.83486399 11.53095425 78.8875885 11.5214386 C70.84755296 11.5105536 62.80761884 11.51407901 54.76758575 11.52509141 C47.87329488 11.53415772 40.97903459 11.53545279 34.08473969 11.53021407 C29.96326026 11.52709075 25.84182856 11.52669493 21.72035217 11.53328705 C17.84620906 11.53905037 13.97219713 11.53508234 10.09806824 11.52349854 C8.67340818 11.52084649 7.24873715 11.52162627 5.82408142 11.52602386 C3.88496791 11.5314591 1.94583037 11.52344643 0.00672913 11.5146637 C-1.08023254 11.51390965 -2.16719421 11.51315559 -3.28709412 11.51237869 C-5.838974 11.26069641 -5.838974 11.26069641 -7.838974 9.26069641 C-8.088974 5.76069641 -8.088974 5.76069641 -7.838974 2.26069641 C-5.14198606 -0.43629152 -3.77333496 0.00713496 0 0 Z " fill="#1A1A1A" transform="translate(86.83897399902344,278.7393035888672)"/>
<path d="M0 0 C1.86773071 -0.00639748 1.86773071 -0.00639748 3.77319336 -0.01292419 C5.16064456 -0.01257465 6.54809574 -0.01211311 7.93554688 -0.0115509 C9.39070726 -0.01454167 10.84586685 -0.01794401 12.30102539 -0.02172852 C16.25959691 -0.03058004 20.21814683 -0.03290708 24.17672729 -0.0335443 C27.47715739 -0.03449235 30.77758241 -0.03816935 34.07801056 -0.0417164 C41.86125443 -0.04986497 49.64448673 -0.05230023 57.42773438 -0.05158997 C65.46776328 -0.05098873 73.50772518 -0.06154876 81.54773712 -0.07733363 C88.44202237 -0.09038884 95.33628567 -0.09577473 102.23058319 -0.09513456 C106.35206963 -0.09487902 110.47349653 -0.09776099 114.5949707 -0.10831261 C118.46910298 -0.11795997 122.34311836 -0.11809606 126.21725464 -0.11079597 C127.64191864 -0.109746 129.06658979 -0.11213734 130.49124146 -0.11815643 C132.43034435 -0.12582073 134.36948671 -0.12005757 136.30859375 -0.11352539 C137.39555542 -0.11407016 138.48251709 -0.11461493 139.60241699 -0.1151762 C142.15429688 0.13371277 142.15429688 0.13371277 144.15429688 2.13371277 C144.46679688 5.63371277 144.46679688 5.63371277 144.15429688 9.13371277 C140.6784243 11.45096115 139.33600035 11.38837397 135.23303223 11.40113831 C133.99636307 11.40966827 132.75969391 11.41819824 131.48554993 11.42698669 C130.11276232 11.42628766 128.73997482 11.42536459 127.3671875 11.42424011 C125.92335156 11.43022353 124.47951882 11.43702864 123.03569031 11.44459534 C119.11222086 11.46227897 115.18883862 11.46695163 111.26533318 11.46822691 C107.99227871 11.47012473 104.71924462 11.47748068 101.44619799 11.4845711 C93.72665406 11.50086068 86.00715679 11.50573943 78.28759766 11.50431824 C70.31735142 11.50311578 62.34737553 11.52423685 54.37719774 11.55580556 C47.53891742 11.58192842 40.70072563 11.59268726 33.86239576 11.59140742 C29.77603117 11.59089672 25.68990692 11.59663932 21.60359192 11.61776352 C17.76216027 11.63707971 13.92119991 11.63731639 10.07975197 11.62273026 C8.66840238 11.62063295 7.25702379 11.62539771 5.84572411 11.63745117 C3.92239548 11.65281652 1.99890728 11.64123615 0.07556152 11.62818909 C-1.00180519 11.62927862 -2.07917191 11.63036816 -3.1891861 11.63149071 C-5.84570312 11.13371277 -5.84570312 11.13371277 -7.72750092 9.30202675 C-9.29978063 6.2532078 -8.77878466 4.36361039 -7.84570312 1.13371277 C-5.13958206 -0.21934776 -3.03100401 0.00467311 0 0 Z " fill="#1B1B1B" transform="translate(288.845703125,108.86628723144531)"/>
<path d="M0 0 C1.228255 -0.00563965 2.45651001 -0.0112793 3.72198486 -0.01708984 C5.08532774 -0.01320113 6.44867003 -0.00910479 7.81201172 -0.00482178 C9.24599383 -0.00753146 10.67997456 -0.01109226 12.11395264 -0.01544189 C16.01058098 -0.02457094 19.9071036 -0.02101954 23.80373383 -0.01468372 C27.8782734 -0.00962639 31.95280382 -0.01431443 36.02734375 -0.01745605 C42.87029651 -0.02109648 49.71320613 -0.0162946 56.55615234 -0.0067749 C64.47178925 0.0041098 72.38732313 0.00058428 80.30295753 -0.01042771 C87.0945251 -0.01949842 93.88606162 -0.02078693 100.67763329 -0.01555037 C104.73597274 -0.01242948 108.79426374 -0.01202461 112.8526001 -0.01862335 C116.66766441 -0.02439304 120.48259566 -0.02040689 124.29764557 -0.00883484 C125.6993106 -0.00618623 127.10098679 -0.00695678 128.5026474 -0.01136017 C130.41289373 -0.01680883 132.32316447 -0.00877102 134.23339844 0 C135.30339081 0.00075405 136.37338318 0.0015081 137.47579956 0.002285 C140.11669922 0.25396729 140.11669922 0.25396729 143.11669922 2.25396729 C143.42919922 5.75396729 143.42919922 5.75396729 143.11669922 9.25396729 C140.41971128 11.95095522 139.05106018 11.50752873 135.27772522 11.5146637 C134.03401657 11.5217485 132.79030792 11.52883331 131.50891113 11.53613281 C130.12304651 11.53383878 128.73718224 11.53132905 127.35131836 11.52862549 C125.8977787 11.53297072 124.44424133 11.53815323 122.9907074 11.54411316 C119.03617938 11.5575351 115.08174674 11.55807828 111.12720037 11.55554986 C107.82934432 11.55448227 104.53150775 11.55935808 101.23365587 11.56415528 C93.45515364 11.57526159 85.67669969 11.57568162 77.89819336 11.56964111 C69.86609654 11.5635997 61.83417481 11.57591395 53.80210787 11.59721118 C46.91289432 11.61480835 40.0237366 11.62083152 33.1345014 11.61757344 C29.01687103 11.61575736 24.89936554 11.61842888 20.78175545 11.63228798 C16.91002737 11.64483112 13.03857284 11.64295585 9.16684914 11.62987709 C7.74421854 11.62750402 6.3215689 11.63027205 4.89896011 11.63850021 C2.96021725 11.64890673 1.02139696 11.63909853 -0.91734314 11.62818909 C-2.00338302 11.62835683 -3.08942289 11.62852457 -4.20837307 11.6286974 C-6.88330078 11.25396729 -6.88330078 11.25396729 -8.76398563 9.92198467 C-9.88330078 8.25396729 -9.88330078 8.25396729 -9.75830078 5.19146729 C-8.17413584 -0.12680073 -4.9269312 0.00347214 0 0 Z " fill="#1B1B1B" transform="translate(289.88330078125,165.74603271484375)"/>
<path d="M0 0 C1.000952 -0.00788544 1.000952 -0.00788544 2.02212524 -0.01593018 C4.21608251 -0.02907661 6.40930754 -0.0204128 8.60327148 -0.01025391 C10.13354125 -0.01227596 11.66381007 -0.01518849 13.19407654 -0.01895142 C16.3959168 -0.02336728 19.59750546 -0.01696681 22.79931641 -0.00292969 C26.90073155 0.01417651 31.00155834 0.00430768 35.102952 -0.01364708 C38.26084316 -0.02449265 41.41859503 -0.02103533 44.5764904 -0.0132637 C46.08874519 -0.01126457 47.60101269 -0.0137109 49.11325264 -0.02070236 C51.22688392 -0.0283315 53.33956445 -0.01669434 55.453125 0 C56.65493912 0.00238678 57.85675323 0.00477356 59.09498596 0.00723267 C62.42886031 0.42134826 63.83901811 0.99143439 66.16186523 3.38818359 C66.66186523 6.38818359 66.66186523 6.38818359 66.16186523 9.38818359 C63.82640201 11.80805205 62.41100946 12.35768078 59.05029297 12.76913452 C57.21640015 12.77271469 57.21640015 12.77271469 55.34545898 12.77636719 C54.66855011 12.78162415 53.99164124 12.7868811 53.29421997 12.79229736 C51.06236523 12.80547369 48.83122691 12.79676828 46.59936523 12.78662109 C45.04524601 12.78864252 43.4911277 12.79155454 41.93701172 12.7953186 C38.68211829 12.79973873 35.42747208 12.79332113 32.17260742 12.77929688 C28.00278546 12.76220494 23.83354278 12.77204782 19.66374207 12.79001427 C16.45523726 12.80086066 13.24686955 12.79740189 10.0383606 12.78963089 C8.50098604 12.78763124 6.96359898 12.79007993 5.42623901 12.79706955 C3.27658168 12.80469839 1.12785928 12.79306115 -1.02172852 12.77636719 C-2.24432373 12.77398041 -3.46691895 12.77159363 -4.7265625 12.76913452 C-8.08854745 12.35752548 -9.49940233 11.80555684 -11.83813477 9.38818359 C-12.40063477 6.38818359 -12.40063477 6.38818359 -11.83813477 3.38818359 C-7.95020027 0.32022373 -4.86738806 0.00966014 0 0 Z " fill="#1B1B1B" transform="translate(366.838134765625,136.61181640625)"/>
<path d="M0 0 C0.72262024 0.00045319 1.44524048 0.00090637 2.1897583 0.00137329 C2.94747025 -0.00198532 3.70518219 -0.00534393 4.4858551 -0.00880432 C7.00313941 -0.01834226 9.52035741 -0.02025885 12.03765869 -0.02133179 C13.78021777 -0.0245424 15.52277658 -0.02790631 17.26533508 -0.03141785 C20.92309189 -0.03741624 24.58082504 -0.03925702 28.23858643 -0.03866577 C32.93430423 -0.03856411 37.62987097 -0.0522174 42.32555294 -0.06943798 C45.92597658 -0.08053599 49.52636345 -0.08258566 53.12680244 -0.08205605 C54.85841963 -0.08323945 56.59003767 -0.08768126 58.32163811 -0.09538841 C60.74002653 -0.10514414 63.15808373 -0.10232794 65.57647705 -0.09628296 C66.29707306 -0.10190247 67.01766907 -0.10752197 67.76010132 -0.11331177 C72.71949924 -0.08167874 72.71949924 -0.08167874 74.94781494 2.14663696 C75.49554151 7.29526673 75.49554151 7.29526673 73.87590027 9.81278992 C70.91424096 11.86166216 68.35455385 11.53601208 64.78594971 11.5506897 C63.69765366 11.56098457 63.69765366 11.56098457 62.58737183 11.57148743 C60.18778949 11.58979651 57.78885843 11.58591219 55.38922119 11.58023071 C53.7215707 11.58479074 52.0539221 11.59009577 50.38627625 11.59611511 C46.89002858 11.60505439 43.39400923 11.60261411 39.89776611 11.59268188 C35.41730047 11.58119403 30.93762314 11.60139616 26.45726109 11.63059902 C23.01284274 11.64894627 19.5686138 11.6486715 16.12415886 11.6429615 C14.47233919 11.64280809 12.82050685 11.64886895 11.1687336 11.66125298 C8.85834463 11.67613316 6.54941793 11.66550948 4.23907471 11.64834595 C2.26742088 11.64809669 2.26742088 11.64809669 0.25593567 11.64784241 C-3.05218506 11.14663696 -3.05218506 11.14663696 -5.51960754 9.3144989 C-7.05218506 7.14663696 -7.05218506 7.14663696 -6.86468506 3.95913696 C-5.56984854 -0.52298946 -4.44436165 0.02894849 0 0 Z " fill="#1A1A1A" transform="translate(121.05218505859375,307.8533630371094)"/>
<path d="M0 0 C0.73674454 -0.0049649 1.47348907 -0.00992981 2.2325592 -0.01504517 C4.67466152 -0.02967461 7.11669892 -0.03646953 9.55883789 -0.04199219 C11.25273135 -0.04774234 12.94662478 -0.05350008 14.64051819 -0.05926514 C18.1939423 -0.0697769 21.74734377 -0.07561863 25.30078125 -0.07910156 C29.85855662 -0.08459127 34.41603399 -0.10862855 38.97371578 -0.13707352 C42.47295513 -0.15567661 45.97212231 -0.16090421 49.47140694 -0.16243744 C51.15196935 -0.16546902 52.83253034 -0.17351453 54.51304436 -0.18662262 C56.86179318 -0.20363734 59.20980867 -0.20181462 61.55859375 -0.1953125 C62.60368607 -0.20913467 62.60368607 -0.20913467 63.66989136 -0.22323608 C66.52791022 -0.19839371 68.40411717 -0.14989994 70.77589417 1.52716064 C72.31466981 3.8811693 72.25673099 5.40955381 71.84399414 8.16113281 C70.77490234 9.79312134 70.77490234 9.79312134 68.84399414 11.16113281 C66.33819646 11.45705229 64.0805114 11.57120852 61.57446289 11.54931641 C60.83757233 11.55457336 60.10068176 11.55983032 59.34146118 11.56524658 C56.90459016 11.57845516 54.46837186 11.56970584 52.03149414 11.55957031 C50.33902867 11.56159081 48.64656405 11.56450205 46.95410156 11.56826782 C43.4065726 11.57269232 39.85927021 11.56625616 36.31176758 11.55224609 C31.76181505 11.53515401 27.21239338 11.54499454 22.66246033 11.56296349 C19.16748038 11.57379799 15.67262654 11.57035654 12.17764282 11.56258011 C10.49988747 11.56057717 8.8221207 11.56304066 7.14437866 11.57001877 C4.80045189 11.57762792 2.45738782 11.56603746 0.11352539 11.54931641 C-0.92921036 11.55842545 -0.92921036 11.55842545 -1.99301147 11.56771851 C-4.81182193 11.53041679 -6.73693283 11.43774157 -9.12207031 9.86343384 C-10.90339588 6.93060853 -9.92283033 4.34640369 -9.15600586 1.16113281 C-6.21107428 -0.31133297 -3.2290307 0.00516578 0 0 Z " fill="#1A1A1A" transform="translate(326.156005859375,194.8388671875)"/>
<path d="M0 0 C0.70748383 -0.00671722 1.41496765 -0.01343445 2.14389038 -0.02035522 C4.48865735 -0.03939348 6.83313901 -0.04326223 9.17797852 -0.04541016 C10.80461242 -0.05183384 12.43124515 -0.05856187 14.05787659 -0.06558228 C17.47008951 -0.07756946 20.88220109 -0.08126161 24.29443359 -0.08007812 C28.67074337 -0.0798748 33.0464047 -0.10718363 37.42256069 -0.14162254 C40.78285213 -0.16384 44.14298621 -0.16791727 47.50334358 -0.16685867 C49.11692605 -0.16922217 50.73051238 -0.17808765 52.34402275 -0.19352341 C54.59960455 -0.21308137 56.85377129 -0.20738723 59.109375 -0.1953125 C60.39351791 -0.19816254 61.67766083 -0.20101257 63.00071716 -0.20394897 C66.11938477 0.29052734 66.11938477 0.29052734 68.06922913 2.15682983 C69.11938477 4.29052734 69.11938477 4.29052734 68.93188477 6.91552734 C68.11938477 9.29052734 68.11938477 9.29052734 66.11938477 11.29052734 C63.12770081 11.55122375 63.12770081 11.55122375 59.23876953 11.56518555 C58.53128571 11.57029648 57.82380188 11.57540741 57.09487915 11.58067322 C54.75009767 11.59460296 52.40560902 11.59360992 50.06079102 11.59130859 C48.43415721 11.59519378 46.80752441 11.59952808 45.18089294 11.60429382 C41.76867385 11.61176338 38.3565582 11.61145955 34.94433594 11.60620117 C30.56812916 11.60040662 26.19234562 11.61733336 21.81620884 11.64054585 C18.45592262 11.65526684 15.0957387 11.65615711 11.73542595 11.65303612 C10.1218577 11.65355019 8.50828385 11.65880406 6.89474678 11.66884804 C4.63934847 11.6811634 2.38477923 11.67445098 0.12939453 11.6628418 C-1.79681984 11.66378593 -1.79681984 11.66378593 -3.76194763 11.66474915 C-6.88061523 11.29052734 -6.88061523 11.29052734 -8.83045959 9.95866394 C-9.88061523 8.29052734 -9.88061523 8.29052734 -9.69311523 5.22802734 C-8.11010408 -0.49516682 -5.40361597 0.03209964 0 0 Z " fill="#1B1B1B" transform="translate(162.880615234375,249.70947265625)"/>
<path d="M0 0 C3 0.5625 3 0.5625 4.66323853 2.74584961 C6.13054478 5.83756703 6.37980038 7.78916518 6.38818359 11.19140625 C6.39764008 12.29605225 6.40709656 13.40069824 6.4168396 14.53881836 C6.41076691 15.7222583 6.40469421 16.90569824 6.3984375 18.125 C6.40274277 19.96106812 6.40274277 19.96106812 6.40713501 21.83422852 C6.40917466 24.41976383 6.40365179 27.0053146 6.39111328 29.59082031 C6.37505933 33.54787712 6.3909665 37.50391246 6.41015625 41.4609375 C6.4081738 43.97396059 6.4043301 46.48698304 6.3984375 49 C6.40451019 50.18343994 6.41058289 51.36687988 6.4168396 52.58618164 C6.40738312 53.69082764 6.39792664 54.79547363 6.38818359 55.93359375 C6.38579681 56.90224365 6.38341003 57.87089355 6.38095093 58.86889648 C5.92542017 62.08983431 4.9648366 63.98323962 3 66.5625 C0 67.125 0 67.125 -3 66.5625 C-6.06405296 63.47129272 -6.37809967 61.11234886 -6.38818359 56.84765625 C-6.39764008 55.69966553 -6.40709656 54.5516748 -6.4168396 53.36889648 C-6.41076691 52.13341064 -6.40469421 50.8979248 -6.3984375 49.625 C-6.40130768 48.35277588 -6.40417786 47.08055176 -6.40713501 45.76977539 C-6.40917677 43.07960391 -6.40514781 40.39024996 -6.39111328 37.70019531 C-6.37402115 34.25674103 -6.38386564 30.81398825 -6.40183067 27.37055969 C-6.41529406 24.08034815 -6.40586034 20.7902207 -6.3984375 17.5 C-6.40451019 16.26451416 -6.41058289 15.02902832 -6.4168396 13.75610352 C-6.40738312 12.60811279 -6.39792664 11.46012207 -6.38818359 10.27734375 C-6.38579681 9.26792725 -6.38341003 8.25851074 -6.38095093 7.21850586 C-5.7538303 2.84619453 -4.37555336 0.82041625 0 0 Z " fill="#1B1B1B" transform="translate(36,194.4375)"/>
<path d="M0 0 C1 1 1 1 1.42578125 4.1953125 C0.87983165 9.0737979 -1.21460435 10.89367111 -4.8125 13.875 C-5.39837891 14.38458252 -5.98425781 14.89416504 -6.58789062 15.41918945 C-7.79220947 16.45994878 -9.00468467 17.49134407 -10.22509766 18.51318359 C-11.88167428 19.90087983 -13.51139947 21.31423667 -15.13671875 22.73828125 C-23.47344824 29.86942639 -23.47344824 29.86942639 -28 30 C-31.09486774 28.16535302 -33.48366688 25.55691914 -36 23 C-36.53625 22.4740625 -37.0725 21.948125 -37.625 21.40625 C-39.95575093 18.91658423 -40.96694113 17.1873336 -41.5625 13.8125 C-41 11 -41 11 -39.3125 9.0625 C-37 8 -37 8 -34.6875 7.9375 C-31.95936378 9.01606548 -30.5115672 10.14749477 -28.33203125 12.06640625 C-27.70659424 12.61369385 -27.08115723 13.16098145 -26.43676758 13.72485352 C-25.96263428 14.14565186 -25.48850098 14.5664502 -25 15 C-24.5968457 14.62190186 -24.19369141 14.24380371 -23.77832031 13.85424805 C-21.9374509 12.12995293 -20.09375761 10.40870626 -18.25 8.6875 C-17.61578125 8.09259766 -16.9815625 7.49769531 -16.328125 6.88476562 C-7.1957889 -1.62923522 -7.1957889 -1.62923522 0 0 Z " fill="#1A1A1A" transform="translate(175,118)"/>
<path d="M0 0 C2.18621534 0.00316279 4.37108058 -0.02031523 6.55712891 -0.0456543 C7.94645012 -0.04792711 9.33577496 -0.04863087 10.72509766 -0.04760742 C11.98902344 -0.05058838 13.25294922 -0.05356934 14.55517578 -0.05664062 C17.69384766 0.31567383 17.69384766 0.31567383 19.60986328 1.64697266 C21.28409705 4.22431225 21.01165731 6.32826313 20.69384766 9.31567383 C18.24289612 11.76662536 16.86054584 11.57018809 13.51283264 11.61921692 C12.81073166 11.61830551 12.10863068 11.6173941 11.38525391 11.61645508 C10.30146706 11.62288277 10.30146706 11.62288277 9.19578552 11.62944031 C7.66674854 11.6351862 6.13768422 11.63568195 4.60864258 11.63134766 C2.26873092 11.62819054 -0.06991301 11.65163141 -2.40966797 11.67700195 C-3.89469241 11.67927522 -5.37972026 11.67997831 -6.86474609 11.67895508 C-7.56482285 11.68816483 -8.2648996 11.69737457 -8.9861908 11.7068634 C-11.87299141 11.67936922 -13.84928157 11.6239669 -16.27905273 9.984375 C-17.30615234 8.31567383 -17.30615234 8.31567383 -17.18115234 5.25317383 C-14.99470839 -2.08703086 -6.27591103 -0.01906928 0 0 Z " fill="#1A1A1A" transform="translate(356.30615234375,264.684326171875)"/>
<path d="M0 0 C1.051875 -0.00257813 2.10375 -0.00515625 3.1875 -0.0078125 C4.280625 -0.00007812 5.37375 0.00765625 6.5 0.015625 C7.593125 0.00789062 8.68625 0.00015625 9.8125 -0.0078125 C10.864375 -0.00523437 11.91625 -0.00265625 13 0 C14.43859375 0.00338379 14.43859375 0.00338379 15.90625 0.00683594 C18.62175728 0.27777322 20.24553891 0.74002094 22.5 2.265625 C23.5 5.140625 23.5 5.140625 23.5 8.265625 C21.40035762 11.05256039 20.18559525 12.13785936 16.72265625 12.78320312 C15.67980469 12.78771484 14.63695312 12.79222656 13.5625 12.796875 C11.84933594 12.80460938 11.84933594 12.80460938 10.1015625 12.8125 C8.91304688 12.79703125 7.72453125 12.7815625 6.5 12.765625 C5.31148438 12.78109375 4.12296875 12.7965625 2.8984375 12.8125 C1.75632812 12.80734375 0.61421875 12.8021875 -0.5625 12.796875 C-1.60535156 12.79236328 -2.64820313 12.78785156 -3.72265625 12.78320312 C-7.18559525 12.13785936 -8.40035762 11.05256039 -10.5 8.265625 C-10.5 5.140625 -10.5 5.140625 -9.5 2.265625 C-6.37689633 0.15220655 -3.7104946 0.00872764 0 0 Z " fill="#1B1B1B" transform="translate(290.5,136.734375)"/>
<path d="M0 0 C1.87365234 -0.02416992 1.87365234 -0.02416992 3.78515625 -0.04882812 C4.98011719 -0.04947266 6.17507812 -0.05011719 7.40625 -0.05078125 C8.50259766 -0.05376221 9.59894531 -0.05674316 10.72851562 -0.05981445 C13.5 0.3125 13.5 0.3125 15.36132812 1.64379883 C17.11221306 4.20968616 16.82077323 6.29723162 16.5 9.3125 C13.70380868 12.10869132 11.94115287 11.57072389 8.03125 11.578125 C6.73832031 11.58070313 5.44539063 11.58328125 4.11328125 11.5859375 C3.43861816 11.58174805 2.76395508 11.57755859 2.06884766 11.57324219 C0.00783843 11.5625407 -2.05229919 11.57313943 -4.11328125 11.5859375 C-5.40621094 11.58335937 -6.69914062 11.58078125 -8.03125 11.578125 C-9.22298828 11.57586914 -10.41472656 11.57361328 -11.64257812 11.57128906 C-14.5 11.3125 -14.5 11.3125 -16.5 9.3125 C-16.8125 5.8125 -16.8125 5.8125 -16.5 2.3125 C-11.52977531 -1.00098312 -5.83796407 -0.01506183 0 0 Z " fill="#1B1B1B" transform="translate(95.5,249.6875)"/>
<path d="M0 0 C3 0.5625 3 0.5625 4.9375 2.5625 C6.41598134 6.73703556 5.92252395 9.23373378 5 13.5625 C3 15.5625 3 15.5625 0.0625 15.9375 C-3 15.5625 -3 15.5625 -4.875 14 C-6.42190908 10.64836365 -6.39126176 8.21427642 -6 4.5625 C-4.44289226 1.18876656 -3.67455315 0.68897872 0 0 Z " fill="#1A1A1A" transform="translate(36,170.4375)"/>
<path d="M0 0 C2.5625 1.6875 2.5625 1.6875 4 4 C3.83849795 7.39154295 3.41703243 8.58296757 1 11 C-1.27734375 11.30078125 -1.27734375 11.30078125 -3.9375 11.3125 C-5.25041016 11.33763672 -5.25041016 11.33763672 -6.58984375 11.36328125 C-9 11 -9 11 -10.82421875 9.671875 C-12 8 -12 8 -11.875 4.9375 C-10.15073104 -0.85111722 -5.27135816 -0.85738958 0 0 Z " fill="#1A1A1A" transform="translate(327,265)"/>
</svg>
